HIERARCHY
ROOT Hips
{
	OFFSET 0.000000  0.463670  0.080341
	CHANNELS 6 Xposition Yposition Zposition Zrotation Yrotation Xrotation 
	JOINT LHipJoint
	{
		OFFSET 0 0 0
		CHANNELS 3 Zrotation Yrotation Xrotation
		JOINT LeftUpLeg
		{
			OFFSET 0.949434 -0.248378 0.086503
			CHANNELS 3 Zrotation Yrotation Xrotation
			JOINT LeftLeg
			{
				OFFSET -0.076513 -3.879421 -0.177038
				CHANNELS 3 Zrotation Yrotation Xrotation
				JOINT LeftFoot
				{
					OFFSET -0.188964 -3.680973 -0.122632
					CHANNELS 3 Zrotation Yrotation Xrotation
					JOINT LeftToeBase
					{
						OFFSET 0.055451 -0.524480 1.120382
						CHANNELS 3 Zrotation Yrotation Xrotation
						End Site
						{
							OFFSET 0.007944 -0.006006 0.139660
						}
					}
				}
			}
		}
	}
	JOINT RHipJoint
	{
		OFFSET 0 0 0
		CHANNELS 3 Zrotation Yrotation Xrotation
		JOINT RightUpLeg
		{
			OFFSET -0.949434 -0.248378 0.086503
			CHANNELS 3 Zrotation Yrotation Xrotation
			JOINT RightLeg
			{
				OFFSET 0.076513 -3.879421 -0.177038
				CHANNELS 3 Zrotation Yrotation Xrotation
				JOINT RightFoot
				{
					OFFSET 0.188964 -3.680973 -0.122632
					CHANNELS 3 Zrotation Yrotation Xrotation
					JOINT RightToeBase
					{
						OFFSET -0.055451 -0.524480 1.120382
						CHANNELS 3 Zrotation Yrotation Xrotation
						End Site
						{
							OFFSET -0.007944 -0.006006 0.139660
						}
					}
				}
			}
		}
	}
	JOINT LowerBack
	{
		OFFSET 0 0 0
		CHANNELS 3 Zrotation Yrotation Xrotation
		JOINT Spine
		{
			OFFSET 0.000000 0.677144 0.028277
			CHANNELS 3 Zrotation Yrotation Xrotation
			JOINT Spine1
			{
				OFFSET 0.000000 2.156116 -0.508617
				CHANNELS 3 Zrotation Yrotation Xrotation
				JOINT Neck
				{
					OFFSET 0 0 0
					CHANNELS 3 Zrotation Yrotation Xrotation
					JOINT Neck1
					{
						OFFSET 0.000000 1.781871 0.216275
						CHANNELS 3 Zrotation Yrotation Xrotation
						JOINT Head
						{
							OFFSET 0.000000 1.015906 -0.026879
							CHANNELS 3 Zrotation Yrotation Xrotation
							End Site
							{
								OFFSET 0.000000 0.339197 0.983632
							}
						}
					}
				}
				JOINT LeftShoulder
				{
					OFFSET 0 0 0
					CHANNELS 3 Zrotation Yrotation Xrotation
					JOINT LeftArm
					{
						OFFSET 1.565866 1.184736 0.289545
						CHANNELS 3 Zrotation Yrotation Xrotation
						JOINT LeftForeArm
						{
							OFFSET 1.930940 -0.176441 -0.109244
							CHANNELS 3 Zrotation Yrotation Xrotation
							JOINT LeftHand
							{
								OFFSET 2.263412 -0.058986 0.122483
								CHANNELS 3 Zrotation Yrotation Xrotation
								JOINT LeftFingerBase
								{
									OFFSET 0 0 0
									CHANNELS 3 Zrotation Yrotation Xrotation
									JOINT LeftHandIndex1
									{
										OFFSET 0.944218 0.017559 0.358417
										CHANNELS 3 Zrotation Yrotation Xrotation
										End Site
										{
											OFFSET 0.237801 -0.022714 0.035813
										}
									}
								}
								JOINT LThumb
								{
									OFFSET 0 0 0
									CHANNELS 3 Zrotation Yrotation Xrotation
									End Site
									{
										OFFSET 0.234930 -0.092931 0.244282
									}
								}
							}
						}
					}
				}
				JOINT RightShoulder
				{
					OFFSET 0 0 0
					CHANNELS 3 Zrotation Yrotation Xrotation
					JOINT RightArm
					{
						OFFSET -1.565866 1.184736 0.289545
						CHANNELS 3 Zrotation Yrotation Xrotation
						JOINT RightForeArm
						{
							OFFSET -1.930940 -0.176441 -0.109244
							CHANNELS 3 Zrotation Yrotation Xrotation
							JOINT RightHand
							{
								OFFSET -2.263412 -0.058986 0.122483
								CHANNELS 3 Zrotation Yrotation Xrotation
								JOINT RightFingerBase
								{
									OFFSET 0 0 0
									CHANNELS 3 Zrotation Yrotation Xrotation
									JOINT RightHandIndex1
									{
										OFFSET -0.944218 0.017559 0.358417
										CHANNELS 3 Zrotation Yrotation Xrotation
										End Site
										{
											OFFSET -0.237801 -0.022714 0.035813
										}
									}
								}
								JOINT RThumb
								{
									OFFSET 0 0 0
									CHANNELS 3 Zrotation Yrotation Xrotation
									End Site
									{
										OFFSET -0.234930 -0.092931 0.244282
									}
								}
							}
						}
					}
				}
			}
		}
	}
}
MOTION
Frames: 12
Frame Time: .0083333
-6.912972 4.812667 -12.204933 165.307999 -13.640400 202.335999 0.000000 0.000000 0.000000 18.553801 10.812700 -126.523300 33.300999 15.073100 132.273605 -4.394600 -34.133900 12.455200 0.177300 2.712400 7.479000 0.000000 0.000000 0.000000 33.242100 -12.584600 -111.343399 -35.282902 -13.057900 140.414398 2.222800 36.470100 -15.045900 -1.276700 7.160900 -20.193001 5.913800 -3.645200 43.926399 0.763100 -5.975600 11.775500 0.493900 -4.264400 -7.468000 -1.224900 6.540000 -4.258499 -15.884700 8.985600 -22.387100 -3.955800 3.144300 -7.421100 -0.000000 0.000000 0.000000 -98.789597 -75.684898 56.626598 15.776100 -25.216101 -3.550000 -0.000000 -0.000000 26.984501 18.439301 17.712000 5.792100 -7.125000 0.000000 -0.000000 -9.283400 48.364201 -0.776600 -0.000000 0.000000 0.000000 52.746300 28.732599 13.716400 -6.825600 11.631800 -0.696000 0.000000 0.000000 34.662399 -66.567497 -16.809299 33.712601 7.125000 -0.000000 -0.000000 -50.188301 -59.444199 20.834200
-6.973508 4.898721 -12.262485 165.214996 -13.424400 203.742996 0.000000 0.000000 0.000000 17.927900 10.159400 -126.592003 33.212700 15.150100 131.934799 -4.429500 -34.284302 11.781400 0.207400 2.932000 8.089500 0.000000 0.000000 0.000000 32.467400 -11.827300 -111.664902 -35.230499 -13.119500 140.182602 1.965500 36.078400 -16.021500 -1.243000 7.069300 -19.921000 6.083700 -3.605300 43.929199 0.861200 -5.760400 11.643500 0.428900 -4.135000 -7.607100 -1.567400 6.362100 -4.072100 -15.991200 8.711300 -22.839199 -3.970100 3.022900 -7.617100 -0.000000 -0.000000 0.000000 -100.844902 -75.548203 59.875801 16.334400 -25.972000 -3.791200 -0.000000 -0.000000 24.174801 18.181299 17.481600 5.634400 -7.125000 0.000000 -0.000000 -9.460400 48.090900 -0.727500 -0.000000 -0.000000 0.000000 52.004200 28.872700 12.795600 -6.568100 11.206300 -0.645100 0.000000 0.000000 34.403198 -65.644600 -16.552700 32.184399 7.125000 -0.000000 -0.000000 -47.783401 -58.714600 18.664301
-7.033679 4.983922 -12.317540 165.145996 -13.178900 205.082993 0.000000 0.000000 0.000000 17.412300 9.460400 -126.561798 33.115700 15.233700 131.564499 -4.463800 -34.452900 11.001700 0.234100 3.114100 8.596500 0.000000 0.000000 0.000000 31.611000 -10.987000 -111.982498 -35.176102 -13.182700 139.943802 1.660800 35.484501 -17.042999 -1.248200 7.083400 -19.962700 6.251300 -3.532300 43.934601 0.965600 -5.512400 11.527100 0.356400 -3.994100 -7.727100 -1.957600 6.168000 -3.873800 -16.070101 8.423100 -23.273001 -3.968600 2.896900 -7.813600 -0.000000 -0.000000 0.000000 -102.896103 -75.560402 63.517300 16.636900 -26.376699 -3.924700 -0.000000 -0.000000 21.496799 18.303101 17.326300 5.626100 -7.125000 0.000000 -0.000000 -9.300600 47.949299 -0.682300 -0.000000 -0.000000 0.000000 51.253399 29.030600 11.601400 -6.302000 10.765000 -0.594400 0.000000 0.000000 34.337399 -64.775002 -16.300200 30.785601 7.125000 -0.000000 -0.000000 -45.646999 -58.004200 16.773701
-7.093423 5.067844 -12.370524 165.119995 -12.891100 206.367996 0.000000 0.000000 0.000000 17.003201 8.758700 -126.484901 33.013802 15.320300 131.177704 -4.490200 -34.619801 10.136200 0.256000 3.255200 8.990200 0.000000 0.000000 0.000000 30.667999 -10.027500 -112.275299 -35.119202 -13.248300 139.694901 1.331800 34.729000 -18.054100 -1.281600 7.174000 -20.231899 6.387900 -3.412400 43.915798 1.085100 -5.227600 11.429000 0.296700 -3.840000 -7.816000 -2.385700 5.968700 -3.667000 -16.124599 8.132700 -23.695101 -3.952800 2.772000 -8.010500 -0.000000 0.000000 0.000000 -105.356598 -75.632896 67.491203 16.711800 -26.476299 -3.958000 -0.000000 -0.000000 19.526199 18.636101 17.244699 5.709200 -7.125000 0.000000 -0.000000 -8.963200 47.912998 -0.649100 -0.000000 0.000000 0.000000 50.500198 29.237900 10.053300 -6.027400 10.307800 -0.544100 0.000000 0.000000 34.583900 -63.958801 -16.043600 29.492800 7.125000 -0.000000 -0.000000 -43.733101 -57.305801 15.103100
-7.152314 5.150731 -12.421985 165.151993 -12.573400 207.578003 0.000000 0.000000 0.000000 16.695999 8.078800 -126.359001 32.909302 15.407800 130.783600 -4.506000 -34.778999 9.197000 0.272700 3.359100 9.280100 0.000000 0.000000 0.000000 29.666401 -8.998400 -112.513298 -35.057400 -13.318800 139.426102 0.997300 33.856998 -19.022301 -1.340000 7.329400 -20.694901 6.496000 -3.256300 43.885700 1.221400 -4.922000 11.355600 0.257900 -3.681100 -7.870700 -2.838400 5.778400 -3.480200 -16.153799 7.861300 -24.092899 -3.922100 2.656500 -8.197400 -0.000000 0.000000 0.000000 -108.189697 -75.694000 71.598801 16.647699 -26.391001 -3.929500 -0.000000 -0.000000 18.415501 19.097601 17.116899 5.818600 -7.125000 0.000000 -0.000000 -8.492100 47.847301 -0.600600 -0.000000 0.000000 0.000000 49.773499 29.539400 8.052500 -5.742000 9.831200 -0.494300 0.000000 0.000000 35.282799 -63.204399 -15.824200 28.365900 7.125000 -0.000000 -0.000000 -42.084000 -56.684700 13.717000
-7.210475 5.232947 -12.472351 165.248993 -12.227500 208.703003 0.000000 0.000000 0.000000 16.474701 7.439000 -126.182800 32.804199 15.494600 130.389099 -4.505500 -34.915798 8.193000 0.285000 3.433300 9.487500 0.000000 0.000000 0.000000 28.620998 -7.932000 -112.676399 -34.989799 -13.395300 139.133194 0.675400 32.919498 -19.913300 -1.417500 7.529600 -21.294100 6.574500 -3.073600 43.852901 1.366500 -4.609600 11.308700 0.238900 -3.524000 -7.893200 -3.269000 5.614100 -3.304899 -16.189699 7.619500 -24.487700 -3.893100 2.555400 -8.377600 0.000000 0.000000 0.000000 -111.485001 -75.638397 75.616997 16.521200 -26.222200 -3.873400 -0.000000 -0.000000 18.367201 19.717100 16.899700 5.947800 -7.125000 0.000000 -0.000000 -7.848900 47.710800 -0.528000 0.000000 0.000000 0.000000 49.083099 29.945400 5.646700 -5.462400 9.362500 -0.447600 0.000000 0.000000 36.413502 -62.551399 -15.675900 27.482500 7.125000 -0.000000 -0.000000 -40.772900 -56.207600 12.682600
-7.267844 5.314799 -12.521681 165.421997 -11.853200 209.731003 0.000000 0.000000 0.000000 16.330700 6.858700 -125.947998 32.699001 15.580200 129.996307 -4.486600 -35.025799 7.124600 0.291700 3.473200 9.599200 0.000000 0.000000 0.000000 27.542801 -6.839900 -112.739502 -34.915001 -13.478900 138.811401 0.374400 31.947201 -20.716200 -1.508800 7.757800 -21.980700 6.634300 -2.883300 43.833500 1.503200 -4.310300 11.286000 0.225700 -3.377100 -7.893100 -3.646000 5.494000 -3.139799 -16.243900 7.424800 -24.893200 -3.873400 2.477600 -8.552500 0.000000 -0.000000 0.000000 -115.032501 -75.465302 79.338799 16.363600 -26.011101 -3.804000 -0.000000 -0.000000 19.172701 20.445299 16.622999 6.087400 -7.125000 0.000000 -0.000000 -7.090100 47.526199 -0.444100 0.000000 -0.000000 0.000000 48.449799 30.472000 2.981900 -5.202900 8.926300 -0.406400 0.000000 0.000000 37.857899 -61.884201 -15.549900 26.644400 7.125000 -0.000000 -0.000000 -39.515900 -55.760399 11.742200
-7.324970 5.397198 -12.569671 165.671997 -11.484800 210.641998 0.000000 0.000000 0.000000 16.279200 6.308300 -125.621399 32.592098 15.666000 129.599197 -4.446000 -35.101299 5.994700 0.294100 3.487000 9.637800 0.000000 0.000000 0.000000 26.458302 -5.787000 -112.700996 -34.832901 -13.569500 138.460495 0.103400 30.979099 -21.415199 -1.609800 8.001000 -22.717199 6.726200 -2.727900 43.848301 1.615500 -4.057300 11.289500 0.191000 -3.255700 -7.876400 -3.946000 5.426000 -2.973600 -16.317600 7.279700 -25.330200 -3.867200 2.426200 -8.729400 -0.000000 0.000000 0.000000 -118.540298 -75.217697 82.566597 16.195601 -25.785200 -3.730700 -0.000000 -0.000000 20.525600 21.296400 16.205799 6.208900 -7.125000 0.000000 -0.000000 -6.186400 47.208900 -0.338400 -0.000000 0.000000 0.000000 47.889801 31.124201 1.444700 -4.980700 8.551900 -0.372600 0.000000 0.000000 38.260300 -61.448700 -15.601800 26.302601 7.125000 -0.000000 -0.000000 -38.867500 -55.663200 11.406000
-7.381425 5.480511 -12.616199 166.014008 -11.123300 211.421997 0.000000 0.000000 0.000000 16.322599 5.819000 -125.186401 32.480598 15.754100 129.187500 -4.391700 -35.166500 4.832100 0.290800 3.467600 9.583600 0.000000 0.000000 0.000000 25.394299 -4.764100 -112.529198 -34.742100 -13.668500 138.074493 -0.141700 30.004900 -22.021200 -1.713000 8.240700 -23.447701 6.856300 -2.612200 43.915798 1.695500 -3.854900 11.319000 0.126000 -3.161800 -7.848300 -4.145400 5.416400 -2.793699 -16.414301 7.185500 -25.815001 -3.879800 2.403400 -8.914100 -0.000000 0.000000 0.000000 -121.783997 -74.938698 85.157799 16.040600 -25.575600 -3.663500 -0.000000 -0.000000 22.148100 22.279499 15.659000 6.310500 -7.125000 0.000000 -0.000000 -5.139000 46.767899 -0.224800 -0.000000 0.000000 0.000000 47.415501 31.877100 0.055000 -4.827400 8.293000 -0.350200 0.000000 0.000000 38.585400 -60.965302 -15.667200 25.942400 7.125000 -0.000000 -0.000000 -38.165298 -55.568600 11.059200
-7.437394 5.565225 -12.660779 166.440994 -10.789500 212.057999 0.000000 0.000000 0.000000 16.466801 5.370900 -124.617203 32.361198 15.847100 128.748993 -4.325600 -35.230598 3.634600 0.280300 3.405300 9.409200 0.000000 0.000000 0.000000 24.367401 -3.793100 -112.226898 -34.642399 -13.775600 137.654297 -0.361300 29.021900 -22.532700 -1.812300 8.463600 -24.131300 7.049700 -2.563900 44.060398 1.730900 -3.725600 11.370400 0.016000 -3.105400 -7.820900 -4.245300 5.466900 -2.610001 -16.523701 7.147700 -26.342501 -3.907600 2.411500 -9.103900 0.000000 -0.000000 0.000000 -124.485107 -74.780296 87.260300 15.880700 -25.358601 -3.594700 -0.000000 -0.000000 23.499201 23.374901 15.003200 6.384300 -7.125000 0.000000 -0.000000 -3.979300 46.217602 -0.119800 0.000000 -0.000000 0.000000 47.045200 32.749298 -1.168400 -4.739000 8.143500 -0.337500 0.000000 0.000000 38.831299 -60.484501 -15.774100 25.649500 7.125000 -0.000000 -0.000000 -37.518799 -55.536301 10.798500
-7.492326 5.651157 -12.703410 166.955002 -10.467300 212.563004 0.000000 0.000000 0.000000 16.696199 4.990500 -123.930199 32.231201 15.946500 128.274597 -4.249400 -35.298199 2.416000 0.262000 3.292800 9.095000 0.000000 0.000000 0.000000 23.381599 -2.815900 -111.793198 -34.534901 -13.889100 137.204803 -0.566900 27.966299 -22.971600 -1.898300 8.651000 -24.709700 7.275100 -2.570000 44.281700 1.723100 -3.663500 11.436300 -0.124100 -3.083500 -7.801600 -4.256600 5.573100 -2.408199 -16.636801 7.159400 -26.924601 -3.947300 2.448500 -9.305799 -0.000000 -0.000000 0.000000 -126.394699 -74.782799 88.773903 15.759900 -25.194000 -3.543100 -0.000000 -0.000000 24.400400 24.543501 14.299100 6.434800 -7.125000 0.000000 -0.000000 -2.762600 45.614201 -0.041900 -0.000000 -0.000000 0.000000 46.778198 33.758801 -2.212300 -4.702800 8.082200 -0.332400 0.000000 0.000000 39.001099 -59.928299 -15.890600 25.308001 7.125000 -0.000000 -0.000000 -36.770802 -55.491199 10.494100
-7.545554 5.737881 -12.743910 167.554993 -10.133000 212.957001 0.000000 0.000000 0.000000 16.996601 4.713100 -123.150497 32.091400 16.051600 127.767097 -4.166300 -35.378101 1.190300 0.236300 3.128200 8.635900 0.000000 0.000000 0.000000 22.433701 -1.763800 -111.233398 -34.420399 -14.008200 136.729904 -0.759200 26.808500 -23.329800 -1.964200 8.791200 -25.144300 7.484700 -2.601700 44.570801 1.683700 -3.649400 11.508400 -0.266000 -3.087100 -7.795800 -4.223300 5.721900 -2.202200 -16.727501 7.219600 -27.527599 -3.984300 2.512600 -9.510700 -0.000000 0.000000 0.000000 -127.494995 -74.975403 89.770401 15.678600 -25.082899 -3.508600 -0.000000 -0.000000 24.804501 25.745800 13.662300 6.498400 -7.125000 0.000000 -0.000000 -1.546000 45.076599 -0.002900 -0.000000 0.000000 0.000000 46.608799 34.909801 -3.073200 -4.710500 8.095400 -0.333500 0.000000 0.000000 39.109001 -59.239300 -16.012699 24.866100 7.125000 -0.000000 -0.000000 -35.833900 -55.407902 10.095400
